<svg width="11" height="16" viewBox="0 0 11 16" fill="none" xmlns="http://www.w3.org/2000/svg">
<path d="M10.9999 5.47005C10.9999 2.22717 8.2054 -0.34186 4.86048 0.0371779C2.32003 0.331985 0.28767 2.35352 0.033625 4.88043C-0.178079 6.81774 0.626396 8.54446 1.9813 9.63946C2.57407 10.1448 2.95514 10.8608 2.95514 11.661V11.7873H8.03604V11.7452C8.03604 10.9871 8.37476 10.2291 8.96753 9.72369C10.1954 8.71292 10.9999 7.19677 10.9999 5.47005Z" fill="#FBC02D"/>
<path d="M5.49557 15.9996C6.19709 15.9996 6.76579 15.4339 6.76579 14.7361C6.76579 14.0383 6.19709 13.4727 5.49557 13.4727C4.79404 13.4727 4.22534 14.0383 4.22534 14.7361C4.22534 15.4339 4.79404 15.9996 5.49557 15.9996Z" fill="#5E5555"/>
<path d="M6.34234 15.1576H4.64871C3.71721 15.1576 2.95508 14.3995 2.95508 13.473V11.3672H8.03597V13.473C8.03597 14.3995 7.27384 15.1576 6.34234 15.1576Z" fill="#B6A6A6"/>
<path d="M8.03597 13.4737L3.12444 14.1475C3.25146 14.4423 3.50551 14.7371 3.80189 14.9056L7.78193 14.3581C7.95129 14.1054 8.03597 13.8106 8.03597 13.4737ZM2.95508 12.505V13.3473L8.03597 12.6314V11.7891L2.95508 12.505Z" fill="#B6A6A6"/>
</svg>
