<svg width="186" height="62" viewBox="0 0 186 62" fill="none" xmlns="http://www.w3.org/2000/svg">
<path d="M16.76 36.46H25.62V41.68H10V13.92H16.76V36.46Z" fill="white"/>
<path d="M50.66 19.6V41.68H43.9V38.44C43.21 39.42 42.29 40.2 41.11 40.79C39.94 41.38 38.64 41.68 37.21 41.68C35.52 41.68 34.03 41.31 32.74 40.55C31.45 39.8 30.45 38.71 29.73 37.29C29.02 35.87 28.66 34.19 28.66 32.27V19.6H35.38V31.36C35.38 32.84 35.76 33.98 36.53 34.8C37.3 35.62 38.32 36.03 39.62 36.03C40.92 36.03 41.98 35.62 42.74 34.8C43.5 33.98 43.89 32.84 43.89 31.36V19.6H50.66Z" fill="white"/>
<path d="M69.93 19.6H61.59L52.56 29.06V32.16L61.59 41.69H69.93L58.77 30.42L69.93 19.61V19.6Z" fill="white"/>
<path d="M69.82 24.79C70.68 23.12 71.84 21.84 73.32 20.94C74.8 20.04 76.44 19.59 78.26 19.59C79.82 19.59 81.18 19.9 82.35 20.51C83.52 21.13 84.43 21.93 85.06 22.93V19.58H91.82V41.66H85.06V38.32C84.4 39.32 83.48 40.13 82.31 40.74C81.14 41.36 79.77 41.66 78.22 41.66C76.43 41.66 74.79 41.2 73.32 40.29C71.84 39.38 70.68 38.08 69.82 36.4C68.96 34.72 68.54 32.78 68.54 30.57C68.54 28.36 68.97 26.43 69.82 24.76V24.79ZM83.66 26.76C82.72 25.81 81.58 25.34 80.24 25.34C78.9 25.34 77.75 25.81 76.82 26.74C75.88 27.68 75.42 28.97 75.42 30.61C75.42 32.25 75.89 33.55 76.82 34.52C77.75 35.49 78.9 35.96 80.24 35.96C81.58 35.96 82.72 35.49 83.66 34.54C84.59 33.59 85.06 32.3 85.06 30.65C85.06 29 84.59 27.71 83.66 26.76Z" fill="white"/>
<path d="M99.9 40.72C98.4 40.08 97.21 39.2 96.34 38.08C95.47 36.96 94.98 35.71 94.88 34.33H101.56C101.64 35.07 102 35.68 102.63 36.14C103.26 36.6 104.04 36.83 104.96 36.83C105.8 36.83 106.46 36.67 106.92 36.35C107.38 36.03 107.61 35.61 107.61 35.1C107.61 34.48 107.28 34.03 106.62 33.73C105.96 33.44 104.89 33.11 103.42 32.75C101.84 32.39 100.52 32.01 99.47 31.62C98.42 31.22 97.51 30.59 96.74 29.73C95.97 28.87 95.59 27.71 95.59 26.25C95.59 25.02 95.94 23.9 96.64 22.88C97.34 21.87 98.37 21.07 99.73 20.48C101.09 19.89 102.7 19.6 104.57 19.6C107.34 19.6 109.52 20.27 111.12 21.6C112.71 22.93 113.63 24.7 113.87 26.91H107.62C107.51 26.17 107.18 25.58 106.61 25.14C106.04 24.7 105.3 24.49 104.38 24.49C103.59 24.49 102.98 24.64 102.56 24.93C102.14 25.22 101.93 25.63 101.93 26.14C101.93 26.76 102.27 27.22 102.94 27.53C103.61 27.84 104.66 28.15 106.08 28.45C107.72 28.86 109.05 29.27 110.08 29.66C111.11 30.06 112.01 30.7 112.79 31.58C113.57 32.46 113.97 33.65 114 35.14C114 36.4 113.64 37.52 112.91 38.51C112.18 39.5 111.14 40.27 109.79 40.84C108.43 41.4 106.86 41.69 105.06 41.69C103.14 41.69 101.42 41.37 99.92 40.73L99.9 40.72Z" fill="white"/>
<path d="M117.52 16.27C116.77 15.57 116.39 14.71 116.39 13.68C116.39 12.65 116.77 11.75 117.52 11.05C118.27 10.35 119.24 10 120.43 10C121.62 10 122.55 10.35 123.3 11.05C124.05 11.75 124.43 12.63 124.43 13.68C124.43 14.73 124.05 15.57 123.3 16.27C122.55 16.97 121.59 17.32 120.43 17.32C119.27 17.32 118.28 16.97 117.52 16.27ZM123.79 19.61V41.68H117.03V19.61H123.79Z" fill="white"/>
<path d="M140.68 20.52C141.85 21.13 142.76 21.94 143.39 22.94V19.6H150.15V41.3C150.15 43.27 149.75 45.06 148.94 46.66C148.14 48.26 146.91 49.53 145.26 50.48C143.61 51.43 141.56 51.9 139.11 51.9C135.84 51.9 133.19 51.15 131.16 49.65C129.13 48.15 127.97 46.12 127.68 43.56H134.36C134.57 44.38 135.07 45.03 135.86 45.5C136.65 45.97 137.63 46.21 138.79 46.21C140.19 46.21 141.3 45.82 142.13 45.04C142.96 44.26 143.38 43.01 143.38 41.29V38.26C142.72 39.26 141.81 40.07 140.65 40.7C139.49 41.33 138.13 41.64 136.58 41.64C134.76 41.64 133.11 41.19 131.64 40.28C130.16 39.37 129 38.08 128.14 36.4C127.28 34.72 126.86 32.78 126.86 30.58C126.86 28.38 127.29 26.44 128.14 24.78C129 23.12 130.16 21.84 131.64 20.94C133.12 20.04 134.76 19.6 136.58 19.6C138.14 19.6 139.5 19.91 140.67 20.52H140.68ZM141.98 26.74C141.04 25.79 139.9 25.32 138.56 25.32C137.22 25.32 136.07 25.79 135.14 26.72C134.2 27.66 133.74 28.94 133.74 30.58C133.74 32.22 134.21 33.52 135.14 34.48C136.07 35.44 137.22 35.92 138.56 35.92C139.9 35.92 141.04 35.45 141.98 34.5C142.91 33.55 143.38 32.26 143.38 30.62C143.38 28.98 142.91 27.69 141.98 26.74Z" fill="white"/>
<path d="M172.83 22.09C174.37 23.75 175.14 26.02 175.14 28.92V41.68H168.42V29.82C168.42 28.36 168.04 27.22 167.27 26.42C166.5 25.61 165.48 25.21 164.18 25.21C162.88 25.21 161.86 25.62 161.1 26.42C160.33 27.23 159.95 28.36 159.95 29.82V41.68H153.19V19.6H159.95V22.73C160.63 21.76 161.56 21 162.72 20.44C163.88 19.88 165.18 19.6 166.63 19.6C169.21 19.6 171.28 20.43 172.82 22.09H172.83Z" fill="white"/>
</svg>
